SeanExtraBold.ufo
<glyph name="exclam" format="1">
  <advance width="435"/>
  <unicode hex="0021"/>
  <outline>
    <contour>
      <point x="192" y="229" type="line"/>
      <point x="179" y="722" type="line"/>
      <point x="314" y="722" type="line"/>
      <point x="305" y="229" type="line"/>
    </contour>
    <contour>
      <point x="180" y="145" type="line"/>
      <point x="315" y="145" type="line"/>
      <point x="315" y="0" type="line"/>
      <point x="180" y="0" type="line"/>
    </contour>
  </outline>
</glyph>
<glyph name="quotedbl" format="1">
  <advance width="468"/>
  <unicode hex="0022"/>
  <outline>
    <contour>
      <point x="253" y="658" type="line"/>
      <point x="286" y="846" type="line"/>
      <point x="410" y="846" type="line"/>
      <point x="366" y="658" type="line"/>
    </contour>
    <contour>
      <point x="77" y="658" type="line"/>
      <point x="109" y="846" type="line"/>
      <point x="234" y="846" type="line"/>
      <point x="190" y="658" type="line"/>
    </contour>
  </outline>
</glyph>
<glyph name="numbersign" format="1">
  <advance width="675"/>
  <unicode hex="0023"/>
  <outline>
    <contour>
      <point x="68" y="220" type="line"/>
      <point x="88" y="299" type="line"/>
      <point x="166" y="302" type="line"/>
      <point x="207" y="441" type="line"/>
      <point x="133" y="438" type="line"/>
      <point x="153" y="516" type="line"/>
      <point x="230" y="519" type="line"/>
      <point x="286" y="706" type="line"/>
      <point x="367" y="706" type="line"/>
      <point x="312" y="522" type="line"/>
      <point x="440" y="527" type="line"/>
      <point x="498" y="720" type="line"/>
      <point x="579" y="720" type="line"/>
      <point x="522" y="530" type="line"/>
      <point x="587" y="533" type="line"/>
      <point x="575" y="453" type="line"/>
      <point x="498" y="450" type="line"/>
      <point x="457" y="313" type="line"/>
      <point x="522" y="315" type="line"/>
      <point x="506" y="236" type="line"/>
      <point x="433" y="233" type="line"/>
      <point x="374" y="38" type="line"/>
      <point x="293" y="38" type="line"/>
      <point x="351" y="230" type="line"/>
      <point x="224" y="226" type="line"/>
      <point x="166" y="30" type="line"/>
      <point x="85" y="30" type="line"/>
      <point x="142" y="223" type="line"/>
    </contour>
    <contour>
      <point x="289" y="443" type="line"/>
      <point x="248" y="305" type="line"/>
      <point x="375" y="310" type="line"/>
      <point x="416" y="448" type="line"/>
    </contour>
  </outline>
</glyph>
<glyph name="quotesingle" format="1">
  <advance width="290"/>
  <unicode hex="0027"/>
  <outline>
    <contour>
      <point x="81" y="658" type="line"/>
      <point x="119" y="846" type="line"/>
      <point x="232" y="846" type="line"/>
      <point x="194" y="658" type="line"/>
    </contour>
  </outline>
</glyph>
<glyph name="parenleft" format="1">
  <advance width="476"/>
  <unicode hex="0028"/>
  <outline>
    <contour>
      <point x="400" y="856" type="line"/>
      <point x="265" y="716"/>
      <point x="187" y="537"/>
      <point x="187" y="326" type="curve" smooth="yes"/>
      <point x="187" y="132"/>
      <point x="260" y="-55"/>
      <point x="392" y="-198" type="curve"/>
      <point x="302" y="-290" type="line"/>
      <point x="144" y="-124"/>
      <point x="56" y="97"/>
      <point x="56" y="327" type="curve" smooth="yes"/>
      <point x="56" y="558"/>
      <point x="144" y="771"/>
      <point x="298" y="935" type="curve"/>
    </contour>
  </outline>
</glyph>
<glyph name="parenright" format="1">
  <advance width="478"/>
  <unicode hex="0029"/>
  <outline>
    <contour>
      <point x="284" y="312" type="curve" smooth="yes"/>
      <point x="284" y="113"/>
      <point x="206" y="-79"/>
      <point x="66" y="-221" type="curve"/>
      <point x="155" y="-290" type="line"/>
      <point x="322" y="-130"/>
      <point x="416" y="90"/>
      <point x="416" y="319" type="curve" smooth="yes"/>
      <point x="416" y="561"/>
      <point x="321" y="768"/>
      <point x="158" y="924" type="curve"/>
      <point x="72" y="835" type="line"/>
      <point x="207" y="696"/>
      <point x="284" y="514"/>
    </contour>
  </outline>
</glyph>
<glyph name="plus" format="1">
  <advance width="764"/>
  <unicode hex="002B"/>
  <outline>
    <contour>
      <point x="112" y="260" type="line"/>
      <point x="333" y="260" type="line"/>
      <point x="332" y="18" type="line"/>
      <point x="451" y="18" type="line"/>
      <point x="451" y="259" type="line"/>
      <point x="662" y="259" type="line"/>
      <point x="662" y="373" type="line"/>
      <point x="452" y="373" type="line"/>
      <point x="452" y="578" type="line"/>
      <point x="334" y="578" type="line"/>
      <point x="333" y="373" type="line"/>
      <point x="112" y="373" type="line"/>
    </contour>
  </outline>
</glyph>
<glyph name="comma" format="1">
  <advance width="358"/>
  <unicode hex="002C"/>
  <outline>
    <contour>
      <point x="61" y="-122" type="line"/>
      <point x="133" y="92" type="line"/>
      <point x="289" y="92" type="line"/>
      <point x="152" y="-122" type="line"/>
    </contour>
  </outline>
</glyph>
<glyph name="hyphen" format="1">
  <advance width="420"/>
  <unicode hex="002D"/>
  <outline>
    <contour>
      <point x="79" y="328" type="line"/>
      <point x="354" y="328" type="line"/>
      <point x="354" y="215" type="line"/>
      <point x="79" y="215" type="line"/>
    </contour>
  </outline>
</glyph>
<glyph name="period" format="1">
  <advance width="361"/>
  <unicode hex="002E"/>
  <outline>
    <contour>
      <point x="114" y="170" type="line"/>
      <point x="259" y="170" type="line"/>
      <point x="259" y="0" type="line"/>
      <point x="114" y="0" type="line"/>
    </contour>
  </outline>
</glyph>
<glyph name="slash" format="1">
  <advance width="590"/>
  <unicode hex="002F"/>
  <outline>
    <contour>
      <point x="172" y="-67" type="line"/>
      <point x="574" y="830" type="line"/>
      <point x="440" y="830" type="line"/>
      <point x="37" y="-67" type="line"/>
    </contour>
  </outline>
</glyph>
<glyph name="zero" format="1">
  <advance width="589"/>
  <unicode hex="0030"/>
  <outline>
    <contour>
      <point x="176" y="244" type="curve" smooth="yes"/>
      <point x="176" y="328"/>
      <point x="227" y="404"/>
      <point x="303" y="404" type="curve" smooth="yes"/>
      <point x="380" y="404"/>
      <point x="424" y="332"/>
      <point x="424" y="254" type="curve" smooth="yes"/>
      <point x="424" y="166"/>
      <point x="371" y="89"/>
      <point x="297" y="89" type="curve" smooth="yes"/>
      <point x="222" y="89"/>
      <point x="176" y="165"/>
    </contour>
    <contour>
      <point x="300" y="-23" type="curve" smooth="yes"/>
      <point x="443" y="-23"/>
      <point x="558" y="96"/>
      <point x="558" y="247" type="curve" smooth="yes"/>
      <point x="558" y="393"/>
      <point x="445" y="517"/>
      <point x="299" y="517" type="curve" smooth="yes"/>
      <point x="153" y="517"/>
      <point x="42" y="393"/>
      <point x="42" y="248" type="curve" smooth="yes"/>
      <point x="42" y="95"/>
      <point x="158" y="-23"/>
    </contour>
  </outline>
</glyph>
<glyph name="one" format="1">
  <advance width="357"/>
  <unicode hex="0031"/>
  <outline>
    <contour>
      <point x="167" y="510" type="line"/>
      <point x="16" y="377" type="line"/>
      <point x="93" y="294" type="line"/>
      <point x="167" y="359" type="line"/>
      <point x="168" y="0" type="line"/>
      <point x="303" y="0" type="line"/>
      <point x="302" y="510" type="line"/>
    </contour>
  </outline>
</glyph>
<glyph name="two" format="1">
  <advance width="477"/>
  <unicode hex="0032"/>
  <outline>
    <contour>
      <point x="301" y="323" type="curve" smooth="yes"/>
      <point x="301" y="371"/>
      <point x="265" y="420"/>
      <point x="205" y="420" type="curve" smooth="yes"/>
      <point x="165" y="420"/>
      <point x="130" y="394"/>
      <point x="101" y="356" type="curve"/>
      <point x="25" y="424" type="line"/>
      <point x="79" y="494"/>
      <point x="146" y="538"/>
      <point x="222" y="538" type="curve" smooth="yes"/>
      <point x="347" y="538"/>
      <point x="424" y="447"/>
      <point x="424" y="344" type="curve" smooth="yes"/>
      <point x="424" y="236"/>
      <point x="367" y="160"/>
      <point x="298" y="120" type="curve"/>
      <point x="457" y="120" type="line"/>
      <point x="457" y="7" type="line"/>
      <point x="35" y="7" type="line"/>
      <point x="35" y="120" type="line"/>
      <point x="144" y="120"/>
      <point x="233" y="156"/>
      <point x="282" y="251" type="curve" smooth="yes"/>
      <point x="294" y="276"/>
      <point x="301" y="300"/>
    </contour>
  </outline>
</glyph>
<glyph name="three" format="1">
  <advance width="579"/>
  <unicode hex="0033"/>
  <outline>
    <contour>
      <point x="352" y="308" type="curve" smooth="yes"/>
      <point x="352" y="378"/>
      <point x="291" y="418"/>
      <point x="211" y="418" type="curve" smooth="yes"/>
      <point x="163" y="418"/>
      <point x="122" y="399"/>
      <point x="86" y="360" type="curve"/>
      <point x="37" y="444" type="line"/>
      <point x="95" y="503"/>
      <point x="161" y="533"/>
      <point x="236" y="533" type="curve" smooth="yes"/>
      <point x="380" y="533"/>
      <point x="483" y="455"/>
      <point x="483" y="320" type="curve" smooth="yes"/>
      <point x="483" y="248"/>
      <point x="452" y="190"/>
      <point x="400" y="149" type="curve"/>
      <point x="458" y="122"/>
      <point x="519" y="55"/>
      <point x="519" y="-33" type="curve" smooth="yes"/>
      <point x="519" y="-164"/>
      <point x="365" y="-261"/>
      <point x="218" y="-261" type="curve" smooth="yes"/>
      <point x="167" y="-261"/>
      <point x="116" y="-251"/>
      <point x="68" y="-229" type="curve"/>
      <point x="113" y="-125" type="line"/>
      <point x="144" y="-143"/>
      <point x="177" y="-151"/>
      <point x="211" y="-151" type="curve" smooth="yes"/>
      <point x="280" y="-151"/>
      <point x="379" y="-105"/>
      <point x="379" y="-30" type="curve" smooth="yes"/>
      <point x="379" y="-22"/>
      <point x="378" y="-13"/>
      <point x="376" y="-5" type="curve" smooth="yes"/>
      <point x="354" y="76"/>
      <point x="271" y="79"/>
      <point x="182" y="79" type="curve" smooth="yes"/>
      <point x="163" y="79" type="line"/>
      <point x="161" y="79" type="line"/>
      <point x="160" y="181" type="line"/>
      <point x="263" y="181"/>
      <point x="352" y="216"/>
    </contour>
  </outline>
</glyph>
<glyph name="four" format="1">
  <advance width="627"/>
  <unicode hex="0034"/>
  <outline>
    <contour>
      <point x="173" y="132" type="line"/>
      <point x="350" y="372" type="line"/>
      <point x="349" y="132" type="line"/>
    </contour>
    <contour>
      <point x="38" y="132" type="line"/>
      <point x="38" y="30" type="line"/>
      <point x="348" y="30" type="line"/>
      <point x="347" y="-222" type="line"/>
      <point x="482" y="-222" type="line"/>
      <point x="483" y="30" type="line"/>
      <point x="601" y="30" type="line"/>
      <point x="601" y="132" type="line"/>
      <point x="484" y="132" type="line"/>
      <point x="486" y="527" type="line"/>
      <point x="351" y="527" type="line"/>
    </contour>
  </outline>
</glyph>
<glyph name="five" format="1">
  <advance width="536"/>
  <unicode hex="0035"/>
  <outline>
    <contour>
      <point x="239" y="325" type="curve" smooth="yes"/>
      <point x="228" y="325"/>
      <point x="218" y="324"/>
      <point x="207" y="323" type="curve"/>
      <point x="207" y="431" type="line"/>
      <point x="439" y="431" type="line"/>
      <point x="439" y="534" type="line"/>
      <point x="84" y="534" type="line"/>
      <point x="82" y="279" type="line"/>
      <point x="82" y="166" type="line"/>
      <point x="121" y="200"/>
      <point x="164" y="216"/>
      <point x="205" y="216" type="curve" smooth="yes"/>
      <point x="290" y="216"/>
      <point x="368" y="147"/>
      <point x="368" y="34" type="curve" smooth="yes"/>
      <point x="368" y="-63"/>
      <point x="301" y="-128"/>
      <point x="217" y="-128" type="curve" smooth="yes"/>
      <point x="186" y="-128"/>
      <point x="153" y="-119"/>
      <point x="120" y="-100" type="curve"/>
      <point x="66" y="-199" type="line"/>
      <point x="124" y="-233"/>
      <point x="183" y="-248"/>
      <point x="237" y="-248" type="curve" smooth="yes"/>
      <point x="384" y="-248"/>
      <point x="500" y="-137"/>
      <point x="500" y="25" type="curve" smooth="yes"/>
      <point x="500" y="207"/>
      <point x="379" y="325"/>
    </contour>
  </outline>
</glyph>
<glyph name="six" format="1">
  <advance width="605"/>
  <unicode hex="0036"/>
  <outline>
    <contour>
      <point x="503" y="750" type="line"/>
      <point x="378" y="709"/>
      <point x="266" y="637"/>
      <point x="176" y="541" type="curve" smooth="yes"/>
      <point x="102" y="462"/>
      <point x="46" y="364"/>
      <point x="46" y="260" type="curve" smooth="yes"/>
      <point x="46" y="107"/>
      <point x="159" y="-9"/>
      <point x="311" y="-9" type="curve" smooth="yes"/>
      <point x="446" y="-9"/>
      <point x="555" y="92"/>
      <point x="555" y="213" type="curve" smooth="yes"/>
      <point x="555" y="338"/>
      <point x="458" y="416"/>
      <point x="334" y="416" type="curve" smooth="yes"/>
      <point x="291" y="416"/>
      <point x="249" y="405"/>
      <point x="212" y="385" type="curve"/>
      <point x="235" y="426"/>
      <point x="267" y="463"/>
      <point x="303" y="496" type="curve" smooth="yes"/>
      <point x="374" y="560"/>
      <point x="456" y="611"/>
      <point x="545" y="645" type="curve"/>
    </contour>
    <contour>
      <point x="437" y="200" type="curve" smooth="yes"/>
      <point x="437" y="141"/>
      <point x="389" y="99"/>
      <point x="326" y="99" type="curve" smooth="yes"/>
      <point x="246" y="99"/>
      <point x="178" y="172"/>
      <point x="178" y="268" type="curve" smooth="yes"/>
      <point x="178" y="275"/>
      <point x="178" y="282"/>
      <point x="179" y="289" type="curve"/>
      <point x="211" y="310"/>
      <point x="248" y="322"/>
      <point x="287" y="322" type="curve" smooth="yes"/>
      <point x="369" y="322"/>
      <point x="437" y="268"/>
    </contour>
  </outline>
</glyph>
<glyph name="seven" format="1">
  <advance width="586"/>
  <unicode hex="0037"/>
  <outline>
    <contour>
      <point x="94" y="526" type="line"/>
      <point x="533" y="525" type="line"/>
      <point x="533" y="401" type="line"/>
      <point x="216" y="-222" type="line"/>
      <point x="73" y="-222" type="line"/>
      <point x="386" y="401" type="line"/>
      <point x="94" y="402" type="line"/>
    </contour>
  </outline>
</glyph>
<glyph name="eight" format="1">
  <advance width="596"/>
  <unicode hex="0038"/>
  <outline>
    <contour>
      <point x="299" y="586" type="curve" smooth="yes"/>
      <point x="349" y="586"/>
      <point x="396" y="556"/>
      <point x="396" y="503" type="curve" smooth="yes"/>
      <point x="396" y="462"/>
      <point x="361" y="427"/>
      <point x="319" y="400" type="curve"/>
      <point x="261" y="430"/>
      <point x="214" y="468"/>
      <point x="214" y="512" type="curve" smooth="yes"/>
      <point x="214" y="560"/>
      <point x="257" y="586"/>
    </contour>
    <contour>
      <point x="296" y="-48" type="curve" smooth="yes"/>
      <point x="426" y="-48"/>
      <point x="537" y="46"/>
      <point x="537" y="167" type="curve" smooth="yes"/>
      <point x="537" y="248"/>
      <point x="489" y="306"/>
      <point x="428" y="346" type="curve"/>
      <point x="484" y="386"/>
      <point x="526" y="442"/>
      <point x="526" y="510" type="curve" smooth="yes"/>
      <point x="526" y="618"/>
      <point x="427" y="698"/>
      <point x="311" y="698" type="curve" smooth="yes"/>
      <point x="196" y="698"/>
      <point x="92" y="621"/>
      <point x="92" y="507" type="curve" smooth="yes"/>
      <point x="92" y="434"/>
      <point x="138" y="375"/>
      <point x="200" y="332" type="curve"/>
      <point x="131" y="285"/>
      <point x="77" y="224"/>
      <point x="77" y="144" type="curve" smooth="yes"/>
      <point x="77" y="33"/>
      <point x="179" y="-48"/>
    </contour>
    <contour>
      <point x="324" y="61" type="curve" smooth="yes"/>
      <point x="262" y="61"/>
      <point x="209" y="106"/>
      <point x="209" y="165" type="curve" smooth="yes"/>
      <point x="209" y="216"/>
      <point x="251" y="250"/>
      <point x="301" y="278" type="curve"/>
      <point x="365" y="245"/>
      <point x="422" y="204"/>
      <point x="422" y="149" type="curve" smooth="yes"/>
      <point x="422" y="93"/>
      <point x="373" y="61"/>
    </contour>
  </outline>
</glyph>
<glyph name="nine" format="1">
  <advance width="613"/>
  <unicode hex="0039"/>
  <outline>
    <contour>
      <point x="302" y="538" type="curve" smooth="yes"/>
      <point x="471" y="538"/>
      <point x="563" y="393"/>
      <point x="563" y="245" type="curve" smooth="yes"/>
      <point x="563" y="115"/>
      <point x="501" y="5"/>
      <point x="414" y="-84" type="curve" smooth="yes"/>
      <point x="338" y="-161"/>
      <point x="245" y="-219"/>
      <point x="142" y="-253" type="curve"/>
      <point x="92" y="-128" type="line"/>
      <point x="209" y="-94"/>
      <point x="315" y="-18"/>
      <point x="381" y="81" type="curve"/>
      <point x="353" y="71"/>
      <point x="323" y="66"/>
      <point x="292" y="66" type="curve" smooth="yes"/>
      <point x="158" y="66"/>
      <point x="54" y="155"/>
      <point x="54" y="294" type="curve" smooth="yes"/>
      <point x="54" y="427"/>
      <point x="166" y="538"/>
    </contour>
    <contour>
      <point x="200" y="303" type="curve" smooth="yes"/>
      <point x="200" y="237"/>
      <point x="257" y="179"/>
      <point x="334" y="179" type="curve" smooth="yes"/>
      <point x="370" y="179"/>
      <point x="405" y="193"/>
      <point x="431" y="216" type="curve"/>
      <point x="432" y="223"/>
      <point x="432" y="229"/>
      <point x="432" y="236" type="curve" smooth="yes"/>
      <point x="432" y="330"/>
      <point x="368" y="403"/>
      <point x="298" y="403" type="curve" smooth="yes"/>
      <point x="239" y="403"/>
      <point x="200" y="358"/>
    </contour>
  </outline>
</glyph>
<glyph name="colon" format="1">
  <advance width="386"/>
  <unicode hex="003A"/>
  <outline>
    <contour>
      <point x="134" y="142" type="line"/>
      <point x="134" y="0" type="line"/>
      <point x="269" y="0" type="line"/>
      <point x="269" y="142" type="line"/>
    </contour>
    <contour>
      <point x="134" y="477" type="line"/>
      <point x="134" y="335" type="line"/>
      <point x="269" y="335" type="line"/>
      <point x="269" y="477" type="line"/>
    </contour>
  </outline>
</glyph>
<glyph name="semicolon" format="1">
  <advance width="358"/>
  <unicode hex="003B"/>
  <outline>
    <contour>
      <point x="137" y="335" type="line"/>
      <point x="271" y="335" type="line"/>
      <point x="271" y="477" type="line"/>
      <point x="137" y="477" type="line"/>
    </contour>
    <contour>
      <point x="50" y="-93" type="line"/>
      <point x="163" y="-93" type="line"/>
      <point x="284" y="91" type="line"/>
      <point x="138" y="91" type="line"/>
    </contour>
  </outline>
</glyph>
<glyph name="less" format="1">
  <advance width="828"/>
  <unicode hex="003C"/>
  <outline>
    <contour>
      <point x="272" y="301" type="line"/>
      <point x="710" y="104" type="line"/>
      <point x="710" y="-31" type="line"/>
      <point x="125" y="232" type="line"/>
      <point x="125" y="367" type="line"/>
      <point x="701" y="637" type="line"/>
      <point x="701" y="502" type="line"/>
    </contour>
  </outline>
</glyph>
<glyph name="equal" format="1">
  <advance width="849"/>
  <unicode hex="003D"/>
  <outline>
    <contour>
      <point x="127" y="274" type="line"/>
      <point x="723" y="274" type="line"/>
      <point x="723" y="161" type="line"/>
      <point x="127" y="161" type="line"/>
    </contour>
    <contour>
      <point x="127" y="496" type="line"/>
      <point x="723" y="496" type="line"/>
      <point x="723" y="383" type="line"/>
      <point x="127" y="383" type="line"/>
    </contour>
  </outline>
</glyph>
<glyph name="greater" format="1">
  <advance width="829"/>
  <unicode hex="003E"/>
  <outline>
    <contour>
      <point x="141" y="-32" type="line"/>
      <point x="718" y="229" type="line"/>
      <point x="718" y="363" type="line"/>
      <point x="127" y="628" type="line"/>
      <point x="127" y="493" type="line"/>
      <point x="569" y="296" type="line"/>
      <point x="141" y="103" type="line"/>
    </contour>
  </outline>
</glyph>
<glyph name="question" format="1">
  <advance width="574"/>
  <unicode hex="003F"/>
  <outline>
    <contour>
      <point x="398" y="526" type="curve" smooth="yes"/>
      <point x="398" y="454"/>
      <point x="338" y="402"/>
      <point x="273" y="402" type="curve" smooth="yes"/>
      <point x="252" y="402"/>
      <point x="230" y="408"/>
      <point x="210" y="420" type="curve"/>
      <point x="210" y="307" type="line"/>
      <point x="209" y="226" type="line"/>
      <point x="344" y="226" type="line"/>
      <point x="345" y="289" type="line"/>
      <point x="442" y="307"/>
      <point x="529" y="390"/>
      <point x="529" y="516" type="curve" smooth="yes"/>
      <point x="529" y="651"/>
      <point x="415" y="761"/>
      <point x="283" y="761" type="curve" smooth="yes"/>
      <point x="250" y="761"/>
      <point x="216" y="755"/>
      <point x="183" y="740" type="curve"/>
      <point x="204" y="628" type="line"/>
      <point x="226" y="644"/>
      <point x="250" y="651"/>
      <point x="274" y="651" type="curve" smooth="yes"/>
      <point x="337" y="651"/>
      <point x="398" y="600"/>
    </contour>
    <contour>
      <point x="354" y="-10" type="line"/>
      <point x="354" y="140" type="line"/>
      <point x="198" y="140" type="line"/>
      <point x="198" y="-10" type="line"/>
    </contour>
  </outline>
</glyph>
<glyph name="at" format="1">
  <advance width="852"/>
  <unicode hex="0040"/>
  <outline>
    <contour>
      <point x="450" y="-80" type="curve" smooth="yes"/>
      <point x="285" y="-80"/>
      <point x="149" y="49"/>
      <point x="149" y="212" type="curve" smooth="yes"/>
      <point x="149" y="373"/>
      <point x="279" y="500"/>
      <point x="440" y="500" type="curve" smooth="yes"/>
      <point x="587" y="500"/>
      <point x="711" y="387"/>
      <point x="711" y="243" type="curve" smooth="yes"/>
      <point x="711" y="156"/>
      <point x="665" y="98"/>
      <point x="625" y="98" type="curve" smooth="yes"/>
      <point x="602" y="98"/>
      <point x="583" y="120"/>
      <point x="583" y="146" type="curve" smooth="yes"/>
      <point x="583" y="195"/>
      <point x="608" y="236"/>
      <point x="608" y="282" type="curve" smooth="yes"/>
      <point x="608" y="369"/>
      <point x="531" y="422"/>
      <point x="442" y="422" type="curve" smooth="yes"/>
      <point x="328" y="422"/>
      <point x="235" y="329"/>
      <point x="235" y="216" type="curve" smooth="yes"/>
      <point x="235" y="111"/>
      <point x="308" y="30"/>
      <point x="415" y="30" type="curve" smooth="yes"/>
      <point x="452" y="30"/>
      <point x="487" y="42"/>
      <point x="517" y="62" type="curve"/>
      <point x="537" y="37"/>
      <point x="577" y="16"/>
      <point x="617" y="16" type="curve" smooth="yes"/>
      <point x="712" y="16"/>
      <point x="803" y="117"/>
      <point x="803" y="251" type="curve" smooth="yes"/>
      <point x="803" y="436"/>
      <point x="645" y="585"/>
      <point x="443" y="585" type="curve" smooth="yes"/>
      <point x="233" y="585"/>
      <point x="59" y="418"/>
      <point x="59" y="208" type="curve" smooth="yes"/>
      <point x="59" y="-4"/>
      <point x="234" y="-169"/>
      <point x="450" y="-169" type="curve" smooth="yes"/>
      <point x="550" y="-169"/>
      <point x="645" y="-131"/>
      <point x="717" y="-62" type="curve"/>
      <point x="656" y="6" type="line"/>
      <point x="601" y="-49"/>
      <point x="529" y="-80"/>
    </contour>
    <contour>
      <point x="327" y="213" type="curve" smooth="yes"/>
      <point x="327" y="280"/>
      <point x="378" y="336"/>
      <point x="447" y="336" type="curve" smooth="yes"/>
      <point x="475" y="336"/>
      <point x="501" y="323"/>
      <point x="514" y="298" type="curve"/>
      <point x="514" y="297"/>
      <point x="515" y="295"/>
      <point x="515" y="293" type="curve" smooth="yes"/>
      <point x="515" y="268"/>
      <point x="493" y="189"/>
      <point x="490" y="145" type="curve"/>
      <point x="477" y="121"/>
      <point x="452" y="103"/>
      <point x="422" y="103" type="curve" smooth="yes"/>
      <point x="368" y="103"/>
      <point x="327" y="151"/>
    </contour>
  </outline>
</glyph>
<glyph name="A" format="1">
  <advance width="768"/>
  <unicode hex="0041"/>
  <outline>
    <contour>
      <point x="44" y="0" type="line"/>
      <point x="179" y="0" type="line"/>
      <point x="247" y="169" type="line"/>
      <point x="534" y="169" type="line"/>
      <point x="584" y="1" type="line"/>
      <point x="719" y="1" type="line"/>
      <point x="481" y="721" type="line"/>
      <point x="358" y="721" type="line"/>
    </contour>
    <contour>
      <point x="502" y="276" type="line"/>
      <point x="291" y="276" type="line"/>
      <point x="412" y="575" type="line"/>
    </contour>
  </outline>
</glyph>
<glyph name="B" format="1">
  <advance width="651"/>
  <unicode hex="0042"/>
  <outline>
    <contour>
      <point x="287" y="722" type="line" smooth="yes"/>
      <point x="426" y="722"/>
      <point x="556" y="683"/>
      <point x="556" y="539" type="curve" smooth="yes"/>
      <point x="556" y="478"/>
      <point x="525" y="431"/>
      <point x="475" y="400" type="curve"/>
      <point x="549" y="366"/>
      <point x="598" y="307"/>
      <point x="598" y="218" type="curve" smooth="yes"/>
      <point x="598" y="67"/>
      <point x="458" y="0"/>
      <point x="291" y="0" type="curve" smooth="yes"/>
      <point x="85" y="0" type="line"/>
      <point x="85" y="722" type="line"/>
    </contour>
    <contour>
      <point x="421" y="534" type="curve" smooth="yes"/>
      <point x="421" y="604"/>
      <point x="355" y="615"/>
      <point x="287" y="615" type="curve" smooth="yes"/>
      <point x="220" y="615" type="line"/>
      <point x="220" y="452" type="line"/>
      <point x="289" y="452" type="line" smooth="yes"/>
      <point x="361" y="452"/>
      <point x="421" y="479"/>
    </contour>
    <contour>
      <point x="291" y="108" type="line" smooth="yes"/>
      <point x="382" y="108"/>
      <point x="464" y="134"/>
      <point x="464" y="227" type="curve" smooth="yes"/>
      <point x="464" y="305"/>
      <point x="386" y="348"/>
      <point x="289" y="348" type="curve" smooth="yes"/>
      <point x="266" y="348"/>
      <point x="243" y="348"/>
      <point x="220" y="347" type="curve"/>
      <point x="220" y="108" type="line"/>
    </contour>
  </outline>
</glyph>
<glyph name="C" format="1">
  <advance width="689"/>
  <unicode hex="0043"/>
  <outline>
    <contour>
      <point x="439" y="128" type="curve" smooth="yes"/>
      <point x="507" y="128"/>
      <point x="559" y="143"/>
      <point x="613" y="172" type="curve"/>
      <point x="676" y="59" type="line"/>
      <point x="597" y="17"/>
      <point x="512" y="-6"/>
      <point x="419" y="-6" type="curve" smooth="yes"/>
      <point x="196" y="-6"/>
      <point x="54" y="133"/>
      <point x="54" y="360" type="curve" smooth="yes"/>
      <point x="54" y="588"/>
      <point x="198" y="733"/>
      <point x="412" y="733" type="curve" smooth="yes"/>
      <point x="517" y="733"/>
      <point x="595" y="707"/>
      <point x="673" y="665" type="curve"/>
      <point x="616" y="555" type="line"/>
      <point x="561" y="586"/>
      <point x="500" y="601"/>
      <point x="438" y="601" type="curve" smooth="yes"/>
      <point x="291" y="601"/>
      <point x="201" y="514"/>
      <point x="201" y="363" type="curve" smooth="yes"/>
      <point x="201" y="220"/>
      <point x="296" y="128"/>
    </contour>
  </outline>
</glyph>
<glyph name="D" format="1">
  <advance width="703"/>
  <unicode hex="0044"/>
  <outline>
    <contour>
      <point x="281" y="722" type="curve" smooth="yes"/>
      <point x="55" y="722" type="line"/>
      <point x="55" y="0" type="line"/>
      <point x="190" y="0" type="line"/>
      <point x="190" y="1" type="line"/>
      <point x="236" y="2"/>
      <point x="283" y="4"/>
      <point x="330" y="4" type="curve" smooth="yes"/>
      <point x="542" y="4"/>
      <point x="669" y="140"/>
      <point x="669" y="346" type="curve" smooth="yes"/>
      <point x="669" y="602"/>
      <point x="525" y="722"/>
    </contour>
    <contour>
      <point x="291" y="110" type="curve" smooth="yes"/>
      <point x="257" y="110"/>
      <point x="224" y="111"/>
      <point x="190" y="112" type="curve"/>
      <point x="190" y="609" type="line"/>
      <point x="299" y="610" type="line" smooth="yes"/>
      <point x="451" y="610"/>
      <point x="534" y="527"/>
      <point x="534" y="377" type="curve" smooth="yes"/>
      <point x="534" y="214"/>
      <point x="448" y="110"/>
    </contour>
  </outline>
</glyph>
<glyph name="E" format="1">
  <advance width="558"/>
  <unicode hex="0045"/>
  <outline>
    <contour>
      <point x="73" y="0" type="line"/>
      <point x="501" y="0" type="line"/>
      <point x="501" y="113" type="line"/>
      <point x="208" y="113" type="line"/>
      <point x="208" y="317" type="line"/>
      <point x="404" y="317" type="line"/>
      <point x="404" y="430" type="line"/>
      <point x="208" y="430" type="line"/>
      <point x="208" y="609" type="line"/>
      <point x="473" y="609" type="line"/>
      <point x="473" y="722" type="line"/>
      <point x="73" y="722" type="line"/>
    </contour>
  </outline>
</glyph>
<glyph name="F" format="1">
  <advance width="592"/>
  <unicode hex="0046"/>
  <outline>
    <contour>
      <point x="91" y="0" type="line"/>
      <point x="91" y="722" type="line"/>
      <point x="536" y="722" type="line"/>
      <point x="536" y="593" type="line"/>
      <point x="225" y="593" type="line"/>
      <point x="225" y="438" type="line"/>
      <point x="468" y="438" type="line"/>
      <point x="468" y="309" type="line"/>
      <point x="225" y="309" type="line"/>
      <point x="225" y="0" type="line"/>
    </contour>
  </outline>
</glyph>
<glyph name="G" format="1">
  <advance width="784"/>
  <unicode hex="0047"/>
  <outline>
    <contour>
      <point x="641" y="555" type="curve"/>
      <point x="681" y="661" type="line"/>
      <point x="602" y="705"/>
      <point x="520" y="732"/>
      <point x="413" y="732" type="curve" smooth="yes"/>
      <point x="198" y="732"/>
      <point x="58" y="588"/>
      <point x="58" y="364" type="curve" smooth="yes"/>
      <point x="58" y="132"/>
      <point x="196" y="-6"/>
      <point x="417" y="-6" type="curve" smooth="yes"/>
      <point x="526" y="-6"/>
      <point x="626" y="24"/>
      <point x="714" y="80" type="curve"/>
      <point x="714" y="358" type="line"/>
      <point x="482" y="358" type="line"/>
      <point x="482" y="256" type="line"/>
      <point x="601" y="256" type="line"/>
      <point x="600" y="141" type="line"/>
      <point x="553" y="124"/>
      <point x="506" y="115"/>
      <point x="450" y="115" type="curve" smooth="yes"/>
      <point x="297" y="115"/>
      <point x="195" y="207"/>
      <point x="194" y="363" type="curve" smooth="yes"/>
      <point x="194" y="515"/>
      <point x="291" y="605"/>
      <point x="441" y="605" type="curve" smooth="yes"/>
      <point x="516" y="605"/>
      <point x="579" y="588"/>
    </contour>
  </outline>
</glyph>
<glyph name="H" format="1">
  <advance width="762"/>
  <unicode hex="0048"/>
  <outline>
    <contour>
      <point x="566" y="722" type="line"/>
      <point x="701" y="722" type="line"/>
      <point x="701" y="0" type="line"/>
      <point x="566" y="0" type="line"/>
      <point x="566" y="300" type="line"/>
      <point x="204" y="300" type="line"/>
      <point x="204" y="0" type="line"/>
      <point x="70" y="0" type="line"/>
      <point x="70" y="722" type="line"/>
      <point x="205" y="722" type="line"/>
      <point x="205" y="424" type="line"/>
      <point x="566" y="424" type="line"/>
    </contour>
  </outline>
</glyph>
<glyph name="I" format="1">
  <advance width="272"/>
  <unicode hex="0049"/>
  <outline>
    <contour>
      <point x="73" y="0" type="line"/>
      <point x="74" y="722" type="line"/>
      <point x="208" y="722" type="line"/>
      <point x="208" y="0" type="line"/>
    </contour>
  </outline>
</glyph>
<glyph name="J" format="1">
  <advance width="331"/>
  <unicode hex="004A"/>
  <outline>
    <contour>
      <point x="266" y="0" type="line" smooth="yes"/>
      <point x="266" y="-127"/>
      <point x="178" y="-242"/>
      <point x="49" y="-242" type="curve" smooth="yes"/>
      <point x="10" y="-242"/>
      <point x="-27" y="-229"/>
      <point x="-58" y="-205" type="curve"/>
      <point x="-1" y="-108" type="line"/>
      <point x="13" y="-121"/>
      <point x="31" y="-128"/>
      <point x="49" y="-128" type="curve" smooth="yes"/>
      <point x="116" y="-128"/>
      <point x="131" y="-58"/>
      <point x="131" y="0" type="curve" smooth="yes"/>
      <point x="132" y="722" type="line"/>
      <point x="266" y="722" type="line"/>
    </contour>
  </outline>
</glyph>
<glyph name="K" format="1">
  <advance width="673"/>
  <unicode hex="004B"/>
  <outline>
    <contour>
      <point x="73" y="0" type="line"/>
      <point x="208" y="0" type="line"/>
      <point x="208" y="291" type="line"/>
      <point x="500" y="0" type="line"/>
      <point x="656" y="0" type="line"/>
      <point x="299" y="368" type="line"/>
      <point x="625" y="722" type="line"/>
      <point x="469" y="722" type="line"/>
      <point x="208" y="434" type="line"/>
      <point x="208" y="722" type="line"/>
      <point x="73" y="722" type="line"/>
    </contour>
  </outline>
</glyph>
<glyph name="L" format="1">
  <advance width="577"/>
  <unicode hex="004C"/>
  <outline>
    <contour>
      <point x="73" y="0" type="line"/>
      <point x="73" y="722" type="line"/>
      <point x="208" y="722" type="line"/>
      <point x="208" y="129" type="line"/>
      <point x="538" y="129" type="line"/>
      <point x="538" y="0" type="line"/>
    </contour>
  </outline>
</glyph>
<glyph name="M" format="1">
  <advance width="877"/>
  <unicode hex="004D"/>
  <outline>
    <contour>
      <point x="656" y="435" type="line"/>
      <point x="495" y="0" type="line"/>
      <point x="366" y="0" type="line"/>
      <point x="204" y="431" type="line"/>
      <point x="175" y="0" type="line"/>
      <point x="41" y="0" type="line"/>
      <point x="95" y="722" type="line"/>
      <point x="230" y="722" type="line"/>
      <point x="424" y="161" type="line"/>
      <point x="627" y="723" type="line"/>
      <point x="672" y="722" type="line"/>
      <point x="761" y="722" type="line"/>
      <point x="827" y="0" type="line"/>
      <point x="692" y="0" type="line"/>
    </contour>
  </outline>
</glyph>
<glyph name="N" format="1">
  <advance width="773"/>
  <unicode hex="004E"/>
  <outline>
    <contour>
      <point x="73" y="0" type="line"/>
      <point x="208" y="0" type="line"/>
      <point x="208" y="523" type="line"/>
      <point x="583" y="0" type="line"/>
      <point x="718" y="0" type="line"/>
      <point x="718" y="722" type="line"/>
      <point x="583" y="722" type="line"/>
      <point x="583" y="199" type="line"/>
      <point x="208" y="722" type="line"/>
      <point x="73" y="722" type="line"/>
    </contour>
  </outline>
</glyph>
<glyph name="O" format="1">
  <advance width="760"/>
  <unicode hex="004F"/>
  <outline>
    <contour>
      <point x="384" y="604" type="curve" smooth="yes"/>
      <point x="251" y="604"/>
      <point x="181" y="497"/>
      <point x="181" y="357" type="curve" smooth="yes"/>
      <point x="181" y="221"/>
      <point x="261" y="117"/>
      <point x="383" y="117" type="curve" smooth="yes"/>
      <point x="522" y="117"/>
      <point x="587" y="224"/>
      <point x="587" y="364" type="curve" smooth="yes"/>
      <point x="587" y="501"/>
      <point x="510" y="604"/>
    </contour>
    <contour>
      <point x="382" y="-6" type="curve" smooth="yes"/>
      <point x="172" y="-6"/>
      <point x="39" y="148"/>
      <point x="39" y="361" type="curve" smooth="yes"/>
      <point x="39" y="575"/>
      <point x="177" y="729"/>
      <point x="384" y="729" type="curve" smooth="yes"/>
      <point x="599" y="729"/>
      <point x="730" y="576"/>
      <point x="730" y="360" type="curve" smooth="yes"/>
      <point x="730" y="147"/>
      <point x="592" y="-6"/>
    </contour>
  </outline>
</glyph>
<glyph name="P" format="1">
  <advance width="569"/>
  <unicode hex="0050"/>
  <outline>
    <contour>
      <point x="310" y="228" type="curve" smooth="yes"/>
      <point x="274" y="228"/>
      <point x="237" y="235"/>
      <point x="208" y="244" type="curve"/>
      <point x="208" y="0" type="line"/>
      <point x="73" y="0" type="line"/>
      <point x="73" y="722" type="line"/>
      <point x="262" y="722" type="line" smooth="yes"/>
      <point x="419" y="722"/>
      <point x="558" y="641"/>
      <point x="558" y="462" type="curve" smooth="yes"/>
      <point x="558" y="329"/>
      <point x="454" y="228"/>
    </contour>
    <contour>
      <point x="422" y="469" type="curve" smooth="yes"/>
      <point x="422" y="562"/>
      <point x="344" y="598"/>
      <point x="262" y="598" type="curve" smooth="yes"/>
      <point x="208" y="598" type="line"/>
      <point x="208" y="364" type="line"/>
      <point x="230" y="355"/>
      <point x="253" y="351"/>
      <point x="276" y="351" type="curve" smooth="yes"/>
      <point x="359" y="351"/>
      <point x="422" y="403"/>
    </contour>
  </outline>
</glyph>
<glyph name="Q" format="1">
  <advance width="765"/>
  <unicode hex="0051"/>
  <outline>
    <contour>
      <point x="493" y="9" type="curve"/>
      <point x="558" y="-57"/>
      <point x="654" y="-110"/>
      <point x="767" y="-119" type="curve"/>
      <point x="767" y="-232" type="line"/>
      <point x="588" y="-229"/>
      <point x="434" y="-127"/>
      <point x="352" y="-5" type="curve"/>
      <point x="160" y="10"/>
      <point x="34" y="155"/>
      <point x="34" y="365" type="curve" smooth="yes"/>
      <point x="34" y="576"/>
      <point x="177" y="728"/>
      <point x="388" y="728" type="curve" smooth="yes"/>
      <point x="600" y="728"/>
      <point x="738" y="578"/>
      <point x="738" y="357" type="curve" smooth="yes"/>
      <point x="738" y="185"/>
      <point x="644" y="52"/>
    </contour>
    <contour>
      <point x="387" y="600" type="curve" smooth="yes"/>
      <point x="248" y="600"/>
      <point x="173" y="500"/>
      <point x="173" y="363" type="curve" smooth="yes"/>
      <point x="173" y="224"/>
      <point x="261" y="121"/>
      <point x="387" y="121" type="curve" smooth="yes"/>
      <point x="526" y="121"/>
      <point x="599" y="223"/>
      <point x="599" y="356" type="curve" smooth="yes"/>
      <point x="599" y="495"/>
      <point x="514" y="600"/>
    </contour>
  </outline>
</glyph>
<glyph name="R" format="1">
  <advance width="692"/>
  <unicode hex="0052"/>
  <outline>
    <contour>
      <point x="302" y="722" type="line" smooth="yes"/>
      <point x="455" y="722"/>
      <point x="588" y="664"/>
      <point x="588" y="510" type="curve" smooth="yes"/>
      <point x="588" y="423"/>
      <point x="536" y="360"/>
      <point x="457" y="325" type="curve"/>
      <point x="692" y="0" type="line"/>
      <point x="537" y="0" type="line"/>
      <point x="326" y="293" type="line"/>
      <point x="310" y="292"/>
      <point x="294" y="291"/>
      <point x="277" y="291" type="curve" smooth="yes"/>
      <point x="229" y="291" type="line"/>
      <point x="229" y="0" type="line"/>
      <point x="94" y="0" type="line"/>
      <point x="94" y="722" type="line"/>
    </contour>
    <contour>
      <point x="454" y="502" type="curve" smooth="yes"/>
      <point x="454" y="579"/>
      <point x="380" y="593"/>
      <point x="302" y="593" type="curve" smooth="yes"/>
      <point x="229" y="593" type="line"/>
      <point x="229" y="409" type="line"/>
      <point x="277" y="409" type="line" smooth="yes"/>
      <point x="370" y="409"/>
      <point x="454" y="430"/>
    </contour>
  </outline>
</glyph>
<glyph name="S" format="1">
  <advance width="594"/>
  <unicode hex="0053"/>
  <outline>
    <contour>
      <point x="451" y="573" type="line"/>
      <point x="400" y="594"/>
      <point x="346" y="610"/>
      <point x="287" y="610" type="curve" smooth="yes"/>
      <point x="241" y="610"/>
      <point x="200" y="591"/>
      <point x="200" y="545" type="curve" smooth="yes"/>
      <point x="200" y="491"/>
      <point x="288" y="455"/>
      <point x="359" y="426" type="curve" smooth="yes"/>
      <point x="456" y="387"/>
      <point x="557" y="321"/>
      <point x="557" y="195" type="curve" smooth="yes"/>
      <point x="557" y="74"/>
      <point x="440" y="-7"/>
      <point x="288" y="-7" type="curve" smooth="yes"/>
      <point x="203" y="-7"/>
      <point x="128" y="12"/>
      <point x="53" y="39" type="curve"/>
      <point x="90" y="163" type="line"/>
      <point x="154" y="133"/>
      <point x="224" y="118"/>
      <point x="295" y="116" type="curve"/>
      <point x="354" y="116"/>
      <point x="404" y="137"/>
      <point x="404" y="195" type="curve" smooth="yes"/>
      <point x="404" y="256"/>
      <point x="335" y="290"/>
      <point x="272" y="315" type="curve"/>
      <point x="171" y="357"/>
      <point x="57" y="416"/>
      <point x="57" y="547" type="curve" smooth="yes"/>
      <point x="57" y="656"/>
      <point x="158" y="731"/>
      <point x="292" y="731" type="curve" smooth="yes"/>
      <point x="371" y="731"/>
      <point x="433" y="712"/>
      <point x="495" y="683" type="curve"/>
    </contour>
  </outline>
</glyph>
<glyph name="T" format="1">
  <advance width="628"/>
  <unicode hex="0054"/>
  <outline>
    <contour>
      <point x="21" y="599" type="line"/>
      <point x="21" y="728" type="line"/>
      <point x="618" y="728" type="line"/>
      <point x="618" y="599" type="line"/>
      <point x="376" y="599" type="line"/>
      <point x="376" y="0" type="line"/>
      <point x="242" y="0" type="line"/>
      <point x="242" y="599" type="line"/>
    </contour>
  </outline>
</glyph>
<glyph name="U" format="1">
  <advance width="710"/>
  <unicode hex="0055"/>
  <outline>
    <contour>
      <point x="63" y="722" type="line"/>
      <point x="63" y="321" type="line" smooth="yes"/>
      <point x="63" y="119"/>
      <point x="163" y="-6"/>
      <point x="358" y="-6" type="curve" smooth="yes"/>
      <point x="563" y="-6"/>
      <point x="670" y="124"/>
      <point x="670" y="335" type="curve" smooth="yes"/>
      <point x="670" y="722" type="line"/>
      <point x="536" y="722" type="line"/>
      <point x="536" y="308" type="line" smooth="yes"/>
      <point x="536" y="194"/>
      <point x="489" y="118"/>
      <point x="383" y="118" type="curve" smooth="yes"/>
      <point x="254" y="118"/>
      <point x="197" y="209"/>
      <point x="197" y="347" type="curve" smooth="yes"/>
      <point x="197" y="722" type="line"/>
    </contour>
  </outline>
</glyph>
<glyph name="V" format="1">
  <advance width="688"/>
  <unicode hex="0056"/>
  <outline>
    <contour>
      <point x="669" y="722" type="line"/>
      <point x="534" y="722" type="line"/>
      <point x="353" y="191" type="line"/>
      <point x="176" y="722" type="line"/>
      <point x="41" y="722" type="line"/>
      <point x="288" y="0" type="line"/>
      <point x="423" y="0" type="line"/>
    </contour>
  </outline>
</glyph>
<glyph name="W" format="1">
  <advance width="965"/>
  <unicode hex="0057"/>
  <outline>
    <contour>
      <point x="943" y="722" type="line"/>
      <point x="808" y="722" type="line"/>
      <point x="673" y="220" type="line"/>
      <point x="564" y="722" type="line"/>
      <point x="440" y="722" type="line"/>
      <point x="319" y="207" type="line"/>
      <point x="175" y="722" type="line"/>
      <point x="40" y="722" type="line"/>
      <point x="270" y="0" type="line"/>
      <point x="394" y="0" type="line"/>
      <point x="509" y="486" type="line"/>
      <point x="614" y="0" type="line"/>
      <point x="738" y="0" type="line"/>
    </contour>
  </outline>
</glyph>
<glyph name="X" format="1">
  <advance width="699"/>
  <unicode hex="0058"/>
  <outline>
    <contour>
      <point x="62" y="722" type="line"/>
      <point x="288" y="370" type="line"/>
      <point x="19" y="0" type="line"/>
      <point x="165" y="0" type="line"/>
      <point x="355" y="266" type="line"/>
      <point x="526" y="0" type="line"/>
      <point x="666" y="0" type="line"/>
      <point x="426" y="373" type="line"/>
      <point x="680" y="722" type="line"/>
      <point x="534" y="722" type="line"/>
      <point x="358" y="479" type="line"/>
      <point x="202" y="722" type="line"/>
    </contour>
  </outline>
</glyph>
<glyph name="Y" format="1">
  <advance width="633"/>
  <unicode hex="0059"/>
  <outline>
    <contour>
      <point x="494" y="722" type="line"/>
      <point x="333" y="477" type="line"/>
      <point x="170" y="722" type="line"/>
      <point x="30" y="722" type="line"/>
      <point x="261" y="368" type="line"/>
      <point x="261" y="0" type="line"/>
      <point x="395" y="0" type="line"/>
      <point x="395" y="368" type="line"/>
      <point x="640" y="722" type="line"/>
    </contour>
  </outline>
</glyph>
<glyph name="Z" format="1">
  <advance width="676"/>
  <unicode hex="005A"/>
  <outline>
    <contour>
      <point x="119" y="593" type="line"/>
      <point x="119" y="717" type="line"/>
      <point x="604" y="718" type="line"/>
      <point x="604" y="594" type="line"/>
      <point x="213" y="122" type="line"/>
      <point x="629" y="122" type="line"/>
      <point x="629" y="-2" type="line"/>
      <point x="56" y="-2" type="line"/>
      <point x="56" y="122" type="line"/>
      <point x="447" y="594" type="line"/>
    </contour>
  </outline>
</glyph>
<glyph name="underscore" format="1">
  <advance width="727"/>
  <unicode hex="005F"/>
  <outline>
    <contour>
      <point x="46" y="-139" type="line"/>
      <point x="691" y="-139" type="line"/>
      <point x="691" y="-274" type="line"/>
      <point x="46" y="-274" type="line"/>
    </contour>
  </outline>
</glyph>
<glyph name="grave" format="1">
  <advance width="365"/>
  <unicode hex="0060"/>
  <outline>
    <contour>
      <point x="204" y="656" type="line"/>
      <point x="55" y="846" type="line"/>
      <point x="201" y="846" type="line"/>
      <point x="338" y="656" type="line"/>
    </contour>
  </outline>
</glyph>
<glyph name="a" format="1">
  <advance width="640"/>
  <unicode hex="0061"/>
  <outline>
    <contour>
      <point x="404" y="341" type="curve"/>
      <point x="400" y="404"/>
      <point x="343" y="438"/>
      <point x="268" y="438" type="curve" smooth="yes"/>
      <point x="223" y="438"/>
      <point x="177" y="425"/>
      <point x="137" y="403" type="curve"/>
      <point x="87" y="494" type="line"/>
      <point x="148" y="527"/>
      <point x="215" y="544"/>
      <point x="284" y="544" type="curve" smooth="yes"/>
      <point x="430" y="544"/>
      <point x="539" y="474"/>
      <point x="539" y="344" type="curve" smooth="yes"/>
      <point x="539" y="0" type="line"/>
      <point x="404" y="0" type="line"/>
      <point x="404" y="57" type="line"/>
      <point x="361" y="15"/>
      <point x="310" y="-11"/>
      <point x="250" y="-11" type="curve" smooth="yes"/>
      <point x="144" y="-11"/>
      <point x="68" y="52"/>
      <point x="68" y="145" type="curve" smooth="yes"/>
      <point x="68" y="278"/>
      <point x="199" y="344"/>
      <point x="353" y="344" type="curve" smooth="yes"/>
      <point x="370" y="344"/>
      <point x="387" y="343"/>
    </contour>
    <contour>
      <point x="404" y="250" type="line"/>
      <point x="386" y="252"/>
      <point x="368" y="253"/>
      <point x="351" y="253" type="curve" smooth="yes"/>
      <point x="268" y="253"/>
      <point x="203" y="227"/>
      <point x="203" y="155" type="curve" smooth="yes"/>
      <point x="203" y="119"/>
      <point x="234" y="101"/>
      <point x="272" y="100" type="curve"/>
      <point x="331" y="100"/>
      <point x="372" y="125"/>
      <point x="404" y="166" type="curve"/>
    </contour>
  </outline>
</glyph>
<glyph name="b" format="1">
  <advance width="610"/>
  <unicode hex="0062"/>
  <outline>
    <contour>
      <point x="340" y="-7" type="curve" smooth="yes"/>
      <point x="281" y="-7"/>
      <point x="231" y="10"/>
      <point x="194" y="35" type="curve"/>
      <point x="194" y="0" type="line"/>
      <point x="59" y="0" type="line"/>
      <point x="59" y="783" type="line"/>
      <point x="194" y="783" type="line"/>
      <point x="194" y="491" type="line"/>
      <point x="242" y="522"/>
      <point x="299" y="540"/>
      <point x="352" y="540" type="curve" smooth="yes"/>
      <point x="495" y="540"/>
      <point x="586" y="414"/>
      <point x="586" y="258" type="curve" smooth="yes"/>
      <point x="586" y="106"/>
      <point x="482" y="-7"/>
    </contour>
    <contour>
      <point x="294" y="445" type="curve" smooth="yes"/>
      <point x="256" y="445"/>
      <point x="223" y="430"/>
      <point x="194" y="407" type="curve"/>
      <point x="194" y="135" type="line"/>
      <point x="221" y="109"/>
      <point x="257" y="95"/>
      <point x="296" y="95" type="curve" smooth="yes"/>
      <point x="394" y="95"/>
      <point x="447" y="170"/>
      <point x="447" y="251" type="curve" smooth="yes"/>
      <point x="447" y="357"/>
      <point x="383" y="445"/>
    </contour>
  </outline>
</glyph>
<glyph name="c" format="1">
  <advance width="521"/>
  <unicode hex="0063"/>
  <outline>
    <contour>
      <point x="184" y="262" type="curve" smooth="yes"/>
      <point x="184" y="355"/>
      <point x="239" y="419"/>
      <point x="336" y="419" type="curve" smooth="yes"/>
      <point x="371" y="419"/>
      <point x="406" y="408"/>
      <point x="436" y="388" type="curve"/>
      <point x="511" y="472" type="line"/>
      <point x="454" y="510"/>
      <point x="393" y="531"/>
      <point x="318" y="531" type="curve" smooth="yes"/>
      <point x="156" y="531"/>
      <point x="43" y="419"/>
      <point x="43" y="264" type="curve" smooth="yes"/>
      <point x="43" y="97"/>
      <point x="149" y="-8"/>
      <point x="313" y="-8" type="curve" smooth="yes"/>
      <point x="386" y="-8"/>
      <point x="458" y="15"/>
      <point x="518" y="58" type="curve"/>
      <point x="455" y="152" type="line"/>
      <point x="423" y="124"/>
      <point x="380" y="108"/>
      <point x="337" y="108" type="curve" smooth="yes"/>
      <point x="243" y="108"/>
      <point x="184" y="176"/>
    </contour>
  </outline>
</glyph>
<glyph name="d" format="1">
  <advance width="645"/>
  <unicode hex="0064"/>
  <outline>
    <contour>
      <point x="336" y="534" type="curve" smooth="yes"/>
      <point x="172" y="534"/>
      <point x="52" y="416"/>
      <point x="52" y="245" type="curve" smooth="yes"/>
      <point x="52" y="97"/>
      <point x="146" y="-6"/>
      <point x="286" y="-6" type="curve" smooth="yes"/>
      <point x="347" y="-6"/>
      <point x="402" y="14"/>
      <point x="448" y="47" type="curve"/>
      <point x="448" y="0" type="line"/>
      <point x="582" y="0" type="line"/>
      <point x="583" y="36"/>
      <point x="583" y="72"/>
      <point x="583" y="107" type="curve" smooth="yes"/>
      <point x="583" y="209"/>
      <point x="584" y="311"/>
      <point x="584" y="414" type="curve" smooth="yes"/>
      <point x="584" y="559"/>
      <point x="583" y="704"/>
      <point x="582" y="849" type="curve"/>
      <point x="447" y="849" type="line"/>
      <point x="448" y="738"/>
      <point x="449" y="627"/>
      <point x="449" y="516" type="curve"/>
      <point x="416" y="527"/>
      <point x="378" y="534"/>
    </contour>
    <contour>
      <point x="353" y="433" type="curve" smooth="yes"/>
      <point x="386" y="433"/>
      <point x="420" y="423"/>
      <point x="449" y="406" type="curve"/>
      <point x="449" y="320"/>
      <point x="448" y="234"/>
      <point x="448" y="148" type="curve"/>
      <point x="423" y="111"/>
      <point x="382" y="82"/>
      <point x="324" y="82" type="curve" smooth="yes"/>
      <point x="242" y="82"/>
      <point x="182" y="153"/>
      <point x="182" y="250" type="curve" smooth="yes"/>
      <point x="182" y="354"/>
      <point x="243" y="433"/>
    </contour>
  </outline>
</glyph>
<glyph name="e" format="1">
  <advance width="586"/>
  <unicode hex="0065"/>
  <outline>
    <contour>
      <point x="328" y="102" type="curve" smooth="yes"/>
      <point x="250" y="102"/>
      <point x="197" y="156"/>
      <point x="181" y="239" type="curve"/>
      <point x="540" y="239" type="line"/>
      <point x="543" y="255"/>
      <point x="545" y="272"/>
      <point x="545" y="289" type="curve" smooth="yes"/>
      <point x="545" y="439"/>
      <point x="448" y="534"/>
      <point x="300" y="534" type="curve" smooth="yes"/>
      <point x="152" y="534"/>
      <point x="46" y="416"/>
      <point x="46" y="255" type="curve" smooth="yes"/>
      <point x="46" y="94"/>
      <point x="140" y="-7"/>
      <point x="300" y="-7" type="curve" smooth="yes"/>
      <point x="384" y="-7"/>
      <point x="464" y="23"/>
      <point x="528" y="77" type="curve"/>
      <point x="461" y="161" type="line"/>
      <point x="428" y="125"/>
      <point x="385" y="102"/>
    </contour>
    <contour>
      <point x="410" y="322" type="curve"/>
      <point x="179" y="322" type="line"/>
      <point x="189" y="384"/>
      <point x="229" y="432"/>
      <point x="295" y="432" type="curve" smooth="yes"/>
      <point x="357" y="432"/>
      <point x="398" y="385"/>
    </contour>
  </outline>
</glyph>
<glyph name="f" format="1">
  <advance width="486"/>
  <unicode hex="0066"/>
  <outline>
    <contour>
      <point x="293" y="517" type="line"/>
      <point x="293" y="661" type="line" smooth="yes"/>
      <point x="293" y="720"/>
      <point x="341" y="763"/>
      <point x="394" y="763" type="curve" smooth="yes"/>
      <point x="411" y="763"/>
      <point x="429" y="758"/>
      <point x="446" y="748" type="curve"/>
      <point x="481" y="845" type="line"/>
      <point x="446" y="866"/>
      <point x="408" y="875"/>
      <point x="372" y="875" type="curve" smooth="yes"/>
      <point x="260" y="875"/>
      <point x="158" y="786"/>
      <point x="158" y="661" type="curve" smooth="yes"/>
      <point x="158" y="517" type="line"/>
      <point x="29" y="517" type="line"/>
      <point x="29" y="415" type="line"/>
      <point x="158" y="415" type="line"/>
      <point x="158" y="0" type="line"/>
      <point x="293" y="0" type="line"/>
      <point x="293" y="415" type="line"/>
      <point x="465" y="415" type="line"/>
      <point x="465" y="517" type="line"/>
    </contour>
  </outline>
</glyph>
<glyph name="g" format="1">
  <advance width="598"/>
  <unicode hex="0067"/>
  <outline>
    <contour>
      <point x="450" y="-108" type="curve" smooth="yes"/>
      <point x="450" y="-165"/>
      <point x="375" y="-202"/>
      <point x="296" y="-202" type="curve" smooth="yes"/>
      <point x="208" y="-202"/>
      <point x="141" y="-163"/>
      <point x="141" y="-88" type="curve" smooth="yes"/>
      <point x="141" y="-60"/>
      <point x="149" y="-39"/>
      <point x="162" y="-19" type="curve"/>
      <point x="206" y="-31"/>
      <point x="262" y="-32"/>
      <point x="327" y="-32" type="curve" smooth="yes"/>
      <point x="383" y="-32"/>
      <point x="450" y="-45"/>
    </contour>
    <contour>
      <point x="273" y="-318" type="curve" smooth="yes"/>
      <point x="444" y="-318"/>
      <point x="582" y="-211"/>
      <point x="582" y="-93" type="curve" smooth="yes"/>
      <point x="582" y="26"/>
      <point x="472" y="72"/>
      <point x="370" y="72" type="curve" smooth="yes"/>
      <point x="343" y="72"/>
      <point x="318" y="71"/>
      <point x="294" y="71" type="curve" smooth="yes"/>
      <point x="219" y="71"/>
      <point x="166" y="77"/>
      <point x="166" y="127" type="curve" smooth="yes"/>
      <point x="166" y="135"/>
      <point x="167" y="144"/>
      <point x="170" y="155" type="curve"/>
      <point x="204" y="138"/>
      <point x="241" y="129"/>
      <point x="283" y="129" type="curve" smooth="yes"/>
      <point x="413" y="129"/>
      <point x="519" y="224"/>
      <point x="519" y="338" type="curve" smooth="yes"/>
      <point x="519" y="373"/>
      <point x="510" y="406"/>
      <point x="496" y="429" type="curve"/>
      <point x="577" y="426" type="line"/>
      <point x="577" y="507" type="line"/>
      <point x="416" y="502" type="line"/>
      <point x="380" y="521"/>
      <point x="343" y="531"/>
      <point x="296" y="531" type="curve" smooth="yes"/>
      <point x="170" y="531"/>
      <point x="58" y="447"/>
      <point x="58" y="326" type="curve" smooth="yes"/>
      <point x="58" y="282"/>
      <point x="73" y="243"/>
      <point x="99" y="211" type="curve"/>
      <point x="78" y="181"/>
      <point x="67" y="146"/>
      <point x="67" y="108" type="curve" smooth="yes"/>
      <point x="67" y="72"/>
      <point x="75" y="46"/>
      <point x="89" y="26" type="curve"/>
      <point x="54" y="-14"/>
      <point x="34" y="-67"/>
      <point x="34" y="-122" type="curve" smooth="yes"/>
      <point x="34" y="-257"/>
      <point x="136" y="-318"/>
    </contour>
    <contour>
      <point x="289" y="429" type="curve" smooth="yes"/>
      <point x="344" y="429"/>
      <point x="391" y="385"/>
      <point x="391" y="328" type="curve" smooth="yes"/>
      <point x="392" y="275"/>
      <point x="349" y="229"/>
      <point x="293" y="229" type="curve" smooth="yes"/>
      <point x="236" y="229"/>
      <point x="190" y="276"/>
      <point x="190" y="332" type="curve" smooth="yes"/>
      <point x="190" y="388"/>
      <point x="232" y="429"/>
    </contour>
  </outline>
</glyph>
<glyph name="h" format="1">
  <advance width="599"/>
  <unicode hex="0068"/>
  <outline>
    <contour>
      <point x="306" y="423" type="curve" smooth="yes"/>
      <point x="269" y="423"/>
      <point x="231" y="407"/>
      <point x="201" y="382" type="curve"/>
      <point x="201" y="254"/>
      <point x="202" y="127"/>
      <point x="202" y="0" type="curve"/>
      <point x="67" y="0" type="line"/>
      <point x="67" y="783" type="line"/>
      <point x="201" y="783" type="line"/>
      <point x="201" y="727" type="line"/>
      <point x="201" y="489" type="line"/>
      <point x="249" y="523"/>
      <point x="307" y="543"/>
      <point x="362" y="543" type="curve" smooth="yes"/>
      <point x="492" y="543"/>
      <point x="542" y="439"/>
      <point x="542" y="320" type="curve" smooth="yes"/>
      <point x="542" y="214"/>
      <point x="542" y="107"/>
      <point x="543" y="0" type="curve"/>
      <point x="408" y="0" type="line"/>
      <point x="408" y="103"/>
      <point x="407" y="206"/>
      <point x="407" y="309" type="curve" smooth="yes"/>
      <point x="407" y="373"/>
      <point x="367" y="423"/>
    </contour>
  </outline>
</glyph>
<glyph name="i" format="1">
  <advance width="287"/>
  <unicode hex="0069"/>
  <outline>
    <contour>
      <point x="74" y="674" type="line"/>
      <point x="220" y="674" type="line"/>
      <point x="220" y="820" type="line"/>
      <point x="74" y="820" type="line"/>
    </contour>
    <contour>
      <point x="80" y="0" type="line"/>
      <point x="215" y="0" type="line"/>
      <point x="214" y="524" type="line"/>
      <point x="80" y="524" type="line"/>
    </contour>
  </outline>
</glyph>
<glyph name="j" format="1">
  <advance width="380"/>
  <unicode hex="006A"/>
  <outline>
    <contour>
      <point x="145" y="672" type="line"/>
      <point x="290" y="672" type="line"/>
      <point x="290" y="823" type="line"/>
      <point x="145" y="823" type="line"/>
    </contour>
    <contour>
      <point x="54" y="-197" type="curve"/>
      <point x="54" y="-310" type="line"/>
      <point x="64" y="-311"/>
      <point x="74" y="-312"/>
      <point x="84" y="-312" type="curve" smooth="yes"/>
      <point x="193" y="-312"/>
      <point x="285" y="-224"/>
      <point x="285" y="-112" type="curve" smooth="yes"/>
      <point x="285" y="526" type="line"/>
      <point x="150" y="526" type="line"/>
      <point x="150" y="-112" type="line" smooth="yes"/>
      <point x="150" y="-160"/>
      <point x="111" y="-198"/>
      <point x="64" y="-198" type="curve" smooth="yes"/>
      <point x="61" y="-198"/>
      <point x="57" y="-197"/>
    </contour>
  </outline>
</glyph>
<glyph name="k" format="1">
  <advance width="626"/>
  <unicode hex="006B"/>
  <outline>
    <contour>
      <point x="99" y="0" type="line"/>
      <point x="99" y="783" type="line"/>
      <point x="233" y="783" type="line"/>
      <point x="233" y="360" type="line"/>
      <point x="423" y="533" type="line"/>
      <point x="593" y="533" type="line"/>
      <point x="335" y="294" type="line"/>
      <point x="615" y="0" type="line"/>
      <point x="450" y="0" type="line"/>
      <point x="233" y="228" type="line"/>
      <point x="233" y="0" type="line"/>
    </contour>
  </outline>
</glyph>
<glyph name="l" format="1">
  <advance width="300"/>
  <unicode hex="006C"/>
  <outline>
    <contour>
      <point x="86" y="1" type="line"/>
      <point x="221" y="1" type="line"/>
      <point x="220" y="849" type="line"/>
      <point x="86" y="849" type="line"/>
    </contour>
  </outline>
</glyph>
<glyph name="m" format="1">
  <advance width="942"/>
  <unicode hex="006D"/>
  <outline>
    <contour>
      <point x="698" y="543" type="curve" smooth="yes"/>
      <point x="819" y="543"/>
      <point x="877" y="450"/>
      <point x="877" y="344" type="curve" smooth="yes"/>
      <point x="877" y="230"/>
      <point x="878" y="115"/>
      <point x="878" y="1" type="curve"/>
      <point x="743" y="1" type="line"/>
      <point x="743" y="338" type="line" smooth="yes"/>
      <point x="743" y="389"/>
      <point x="701" y="424"/>
      <point x="649" y="424" type="curve" smooth="yes"/>
      <point x="609" y="424"/>
      <point x="574" y="406"/>
      <point x="543" y="381" type="curve"/>
      <point x="545" y="369"/>
      <point x="545" y="357"/>
      <point x="545" y="345" type="curve" smooth="yes"/>
      <point x="545" y="230"/>
      <point x="545" y="116"/>
      <point x="544" y="1" type="curve"/>
      <point x="409" y="1" type="line"/>
      <point x="410" y="117"/>
      <point x="410" y="233"/>
      <point x="410" y="348" type="curve" smooth="yes"/>
      <point x="410" y="396"/>
      <point x="369" y="429"/>
      <point x="320" y="429" type="curve" smooth="yes"/>
      <point x="281" y="429"/>
      <point x="242" y="410"/>
      <point x="211" y="385" type="curve"/>
      <point x="211" y="248"/>
      <point x="211" y="143"/>
      <point x="210" y="0" type="curve"/>
      <point x="75" y="0" type="line"/>
      <point x="76" y="159"/>
      <point x="76" y="271"/>
      <point x="76" y="431" type="curve" smooth="yes"/>
      <point x="76" y="533" type="line"/>
      <point x="211" y="533" type="line"/>
      <point x="211" y="492" type="line"/>
      <point x="256" y="525"/>
      <point x="312" y="546"/>
      <point x="366" y="546" type="curve" smooth="yes"/>
      <point x="439" y="546"/>
      <point x="486" y="512"/>
      <point x="514" y="465" type="curve"/>
      <point x="562" y="512"/>
      <point x="632" y="543"/>
    </contour>
  </outline>
</glyph>
<glyph name="n" format="1">
  <advance width="610"/>
  <unicode hex="006E"/>
  <outline>
    <contour>
      <point x="375" y="543" type="curve" smooth="yes"/>
      <point x="501" y="543"/>
      <point x="554" y="447"/>
      <point x="554" y="332" type="curve" smooth="yes"/>
      <point x="554" y="0" type="line"/>
      <point x="419" y="0" type="line"/>
      <point x="419" y="322" type="line" smooth="yes"/>
      <point x="419" y="381"/>
      <point x="378" y="421"/>
      <point x="322" y="421" type="curve" smooth="yes"/>
      <point x="276" y="421"/>
      <point x="237" y="400"/>
      <point x="204" y="372" type="curve"/>
      <point x="204" y="248"/>
      <point x="203" y="124"/>
      <point x="202" y="0" type="curve"/>
      <point x="68" y="0" type="line"/>
      <point x="69" y="144"/>
      <point x="69" y="287"/>
      <point x="69" y="431" type="curve" smooth="yes"/>
      <point x="69" y="533" type="line"/>
      <point x="204" y="533" type="line"/>
      <point x="204" y="480" type="line"/>
      <point x="254" y="519"/>
      <point x="315" y="543"/>
    </contour>
  </outline>
</glyph>
<glyph name="o" format="1">
  <advance width="621"/>
  <unicode hex="006F"/>
  <outline>
    <contour>
      <point x="310" y="425" type="curve" smooth="yes"/>
      <point x="220" y="425"/>
      <point x="181" y="356"/>
      <point x="182" y="276" type="curve"/>
      <point x="182" y="181"/>
      <point x="236" y="110"/>
      <point x="313" y="110" type="curve" smooth="yes"/>
      <point x="404" y="110"/>
      <point x="442" y="179"/>
      <point x="442" y="264" type="curve" smooth="yes"/>
      <point x="442" y="357"/>
      <point x="387" y="425"/>
    </contour>
    <contour>
      <point x="313" y="-9" type="curve" smooth="yes"/>
      <point x="144" y="-9"/>
      <point x="44" y="102"/>
      <point x="44" y="265" type="curve" smooth="yes"/>
      <point x="44" y="427"/>
      <point x="153" y="540"/>
      <point x="311" y="540" type="curve" smooth="yes"/>
      <point x="477" y="540"/>
      <point x="578" y="430"/>
      <point x="578" y="269" type="curve" smooth="yes"/>
      <point x="578" y="105"/>
      <point x="468" y="-9"/>
    </contour>
  </outline>
</glyph>
<glyph name="p" format="1">
  <advance width="639"/>
  <unicode hex="0070"/>
  <outline>
    <contour>
      <point x="341" y="-11" type="curve" smooth="yes"/>
      <point x="286" y="-11"/>
      <point x="242" y="2"/>
      <point x="204" y="23" type="curve"/>
      <point x="204" y="-85"/>
      <point x="203" y="-192"/>
      <point x="202" y="-300" type="curve"/>
      <point x="67" y="-300" type="line"/>
      <point x="68" y="-158"/>
      <point x="69" y="-16"/>
      <point x="69" y="126" type="curve" smooth="yes"/>
      <point x="69" y="214"/>
      <point x="69" y="301"/>
      <point x="68" y="389" type="curve" smooth="yes"/>
      <point x="68" y="437"/>
      <point x="67" y="485"/>
      <point x="67" y="533" type="curve"/>
      <point x="202" y="533" type="line"/>
      <point x="202" y="481" type="line"/>
      <point x="255" y="517"/>
      <point x="319" y="540"/>
      <point x="378" y="540" type="curve" smooth="yes"/>
      <point x="519" y="540"/>
      <point x="600" y="415"/>
      <point x="600" y="271" type="curve" smooth="yes"/>
      <point x="600" y="107"/>
      <point x="492" y="-11"/>
    </contour>
    <contour>
      <point x="321" y="439" type="curve" smooth="yes"/>
      <point x="273" y="439"/>
      <point x="236" y="418"/>
      <point x="203" y="388" type="curve"/>
      <point x="203" y="299"/>
      <point x="204" y="209"/>
      <point x="204" y="120" type="curve"/>
      <point x="231" y="107"/>
      <point x="260" y="100"/>
      <point x="291" y="100" type="curve" smooth="yes"/>
      <point x="399" y="100"/>
      <point x="467" y="167"/>
      <point x="467" y="271" type="curve" smooth="yes"/>
      <point x="467" y="364"/>
      <point x="404" y="439"/>
    </contour>
  </outline>
</glyph>
<glyph name="q" format="1">
  <advance width="646"/>
  <unicode hex="0071"/>
  <outline>
    <contour>
      <point x="308" y="541" type="curve" smooth="yes"/>
      <point x="364" y="541"/>
      <point x="413" y="524"/>
      <point x="450" y="500" type="curve"/>
      <point x="450" y="533" type="line"/>
      <point x="585" y="533" type="line"/>
      <point x="585" y="-300" type="line"/>
      <point x="450" y="-300" type="line"/>
      <point x="450" y="27" type="line"/>
      <point x="408" y="5"/>
      <point x="360" y="-7"/>
      <point x="311" y="-7" type="curve" smooth="yes"/>
      <point x="158" y="-7"/>
      <point x="39" y="99"/>
      <point x="39" y="264" type="curve" smooth="yes"/>
      <point x="39" y="417"/>
      <point x="160" y="541"/>
    </contour>
    <contour>
      <point x="362" y="87" type="curve" smooth="yes"/>
      <point x="396" y="87"/>
      <point x="423" y="94"/>
      <point x="450" y="108" type="curve"/>
      <point x="450" y="406" type="line"/>
      <point x="420" y="429"/>
      <point x="382" y="442"/>
      <point x="344" y="442" type="curve" smooth="yes"/>
      <point x="242" y="442"/>
      <point x="180" y="359"/>
      <point x="180" y="271" type="curve" smooth="yes"/>
      <point x="180" y="158"/>
      <point x="264" y="87"/>
    </contour>
  </outline>
</glyph>
<glyph name="r" format="1">
  <advance width="473"/>
  <unicode hex="0072"/>
  <outline>
    <contour>
      <point x="389" y="411" type="curve" smooth="yes"/>
      <point x="401" y="411"/>
      <point x="414" y="410"/>
      <point x="426" y="408" type="curve"/>
      <point x="448" y="530" type="line"/>
      <point x="439" y="531"/>
      <point x="431" y="531"/>
      <point x="422" y="531" type="curve" smooth="yes"/>
      <point x="345" y="531"/>
      <point x="272" y="505"/>
      <point x="220" y="473" type="curve"/>
      <point x="220" y="524" type="line"/>
      <point x="85" y="524" type="line"/>
      <point x="85" y="0" type="line"/>
      <point x="220" y="0" type="line"/>
      <point x="220" y="332" type="line"/>
      <point x="258" y="379"/>
      <point x="313" y="411"/>
    </contour>
  </outline>
</glyph>
<glyph name="s" format="1">
  <advance width="521"/>
  <unicode hex="0073"/>
  <outline>
    <contour>
      <point x="270" y="428" type="curve" smooth="yes"/>
      <point x="318" y="428"/>
      <point x="363" y="415"/>
      <point x="404" y="389" type="curve"/>
      <point x="446" y="482" type="line"/>
      <point x="396" y="513"/>
      <point x="344" y="531"/>
      <point x="278" y="531" type="curve" smooth="yes"/>
      <point x="164" y="531"/>
      <point x="68" y="462"/>
      <point x="68" y="368" type="curve" smooth="yes"/>
      <point x="68" y="271"/>
      <point x="151" y="228"/>
      <point x="235" y="210" type="curve" smooth="yes"/>
      <point x="287" y="199"/>
      <point x="351" y="200"/>
      <point x="351" y="151" type="curve" smooth="yes"/>
      <point x="351" y="109"/>
      <point x="299" y="100"/>
      <point x="253" y="100" type="curve" smooth="yes"/>
      <point x="191" y="100"/>
      <point x="133" y="117"/>
      <point x="81" y="149" type="curve"/>
      <point x="32" y="52" type="line"/>
      <point x="93" y="14"/>
      <point x="161" y="-6"/>
      <point x="233" y="-6" type="curve" smooth="yes"/>
      <point x="363" y="-6"/>
      <point x="483" y="57"/>
      <point x="483" y="162" type="curve" smooth="yes"/>
      <point x="483" y="255"/>
      <point x="401" y="299"/>
      <point x="318" y="317" type="curve" smooth="yes"/>
      <point x="260" y="329"/>
      <point x="191" y="334"/>
      <point x="191" y="379" type="curve" smooth="yes"/>
      <point x="191" y="419"/>
      <point x="231" y="428"/>
    </contour>
  </outline>
</glyph>
<glyph name="t" format="1">
  <advance width="459"/>
  <unicode hex="0074"/>
  <outline>
    <contour>
      <point x="28" y="416" type="line"/>
      <point x="26" y="534" type="line"/>
      <point x="140" y="534" type="line"/>
      <point x="140" y="615" type="line"/>
      <point x="274" y="697" type="line"/>
      <point x="274" y="535" type="line"/>
      <point x="431" y="535" type="line"/>
      <point x="431" y="416" type="line"/>
      <point x="274" y="416" type="line"/>
      <point x="274" y="226" type="line" smooth="yes"/>
      <point x="274" y="165"/>
      <point x="275" y="109"/>
      <point x="327" y="109" type="curve" smooth="yes"/>
      <point x="348" y="109"/>
      <point x="368" y="114"/>
      <point x="386" y="123" type="curve"/>
      <point x="425" y="25" type="line"/>
      <point x="378" y="5"/>
      <point x="328" y="-6"/>
      <point x="277" y="-6" type="curve" smooth="yes"/>
      <point x="191" y="-6"/>
      <point x="140" y="63"/>
      <point x="140" y="153" type="curve" smooth="yes"/>
      <point x="140" y="416" type="line"/>
    </contour>
  </outline>
</glyph>
<glyph name="u" format="1">
  <advance width="609"/>
  <unicode hex="0075"/>
  <outline>
    <contour>
      <point x="206" y="209" type="line" smooth="yes"/>
      <point x="206" y="142"/>
      <point x="246" y="90"/>
      <point x="321" y="90" type="curve" smooth="yes"/>
      <point x="359" y="90"/>
      <point x="393" y="106"/>
      <point x="416" y="132" type="curve"/>
      <point x="416" y="533" type="line"/>
      <point x="551" y="533" type="line"/>
      <point x="551" y="0" type="line"/>
      <point x="416" y="0" type="line"/>
      <point x="416" y="37" type="line"/>
      <point x="374" y="7"/>
      <point x="322" y="-10"/>
      <point x="267" y="-10" type="curve" smooth="yes"/>
      <point x="149" y="-10"/>
      <point x="72" y="60"/>
      <point x="72" y="165" type="curve" smooth="yes"/>
      <point x="72" y="533" type="line"/>
      <point x="206" y="533" type="line"/>
    </contour>
  </outline>
</glyph>
<glyph name="v" format="1">
  <advance width="585"/>
  <unicode hex="0076"/>
  <outline>
    <contour>
      <point x="21" y="533" type="line"/>
      <point x="166" y="533" type="line"/>
      <point x="295" y="167" type="line"/>
      <point x="424" y="533" type="line"/>
      <point x="569" y="533" type="line"/>
      <point x="359" y="0" type="line"/>
      <point x="236" y="0" type="line"/>
    </contour>
  </outline>
</glyph>
<glyph name="w" format="1">
  <advance width="938"/>
  <unicode hex="0077"/>
  <outline>
    <contour>
      <point x="44" y="533" type="line"/>
      <point x="179" y="533" type="line"/>
      <point x="297" y="181" type="line"/>
      <point x="409" y="533" type="line"/>
      <point x="533" y="533" type="line"/>
      <point x="636" y="171" type="line"/>
      <point x="776" y="533" type="line"/>
      <point x="923" y="533" type="line"/>
      <point x="694" y="0" type="line"/>
      <point x="570" y="0" type="line"/>
      <point x="469" y="333" type="line"/>
      <point x="364" y="0" type="line"/>
      <point x="240" y="0" type="line"/>
    </contour>
  </outline>
</glyph>
<glyph name="x" format="1">
  <advance width="591"/>
  <unicode hex="0078"/>
  <outline>
    <contour>
      <point x="65" y="533" type="line"/>
      <point x="222" y="533" type="line"/>
      <point x="306" y="400" type="line"/>
      <point x="409" y="533" type="line"/>
      <point x="565" y="533" type="line"/>
      <point x="384" y="278" type="line"/>
      <point x="561" y="0" type="line"/>
      <point x="404" y="0" type="line"/>
      <point x="305" y="156" type="line"/>
      <point x="183" y="0" type="line"/>
      <point x="27" y="0" type="line"/>
      <point x="228" y="277" type="line"/>
    </contour>
  </outline>
</glyph>
<glyph name="y" format="1">
  <advance width="595"/>
  <unicode hex="0079"/>
  <outline>
    <contour>
      <point x="34" y="524" type="line"/>
      <point x="226" y="85" type="line"/>
      <point x="47" y="-297" type="line"/>
      <point x="193" y="-297" type="line"/>
      <point x="578" y="524" type="line"/>
      <point x="432" y="524" type="line"/>
      <point x="293" y="229" type="line"/>
      <point x="169" y="524" type="line"/>
    </contour>
  </outline>
</glyph>
<glyph name="z" format="1">
  <advance width="521"/>
  <unicode hex="007A"/>
  <outline>
    <contour>
      <point x="84" y="412" type="line"/>
      <point x="84" y="530" type="line"/>
      <point x="480" y="531" type="line"/>
      <point x="480" y="412" type="line"/>
      <point x="199" y="118" type="line"/>
      <point x="490" y="118" type="line"/>
      <point x="490" y="0" type="line"/>
      <point x="40" y="0" type="line"/>
      <point x="40" y="118" type="line"/>
      <point x="321" y="412" type="line"/>
    </contour>
  </outline>
</glyph>
<glyph name="bar" format="1">
  <advance width="113"/>
  <unicode hex="007C"/>
  <outline>
    <contour>
      <point x="-6" y="-394" type="line"/>
      <point x="129" y="-394" type="line"/>
      <point x="129" y="-374" type="line"/>
      <point x="-6" y="-374" type="line"/>
    </contour>
    <contour>
      <point x="-6" y="911" type="line"/>
      <point x="129" y="911" type="line"/>
      <point x="129" y="931" type="line"/>
      <point x="-6" y="931" type="line"/>
    </contour>
    <contour>
      <point x="-6" y="833" type="line"/>
      <point x="-6" y="786" type="line"/>
      <point x="129" y="786" type="line"/>
      <point x="129" y="833" type="line"/>
    </contour>
    <contour>
      <point x="-6" y="526" type="line"/>
      <point x="129" y="526" type="line"/>
      <point x="129" y="765" type="line"/>
      <point x="-6" y="765" type="line"/>
    </contour>
    <contour>
      <point x="-6" y="1" type="line"/>
      <point x="129" y="1" type="line"/>
      <point x="129" y="523" type="line"/>
      <point x="-6" y="523" type="line"/>
    </contour>
    <contour>
      <point x="-6" y="-297" type="line"/>
      <point x="129" y="-297" type="line"/>
      <point x="129" y="-1" type="line"/>
      <point x="-6" y="-1" type="line"/>
    </contour>
  </outline>
</glyph>
